<?xml version="1.0" encoding="utf-8"?>
<!-- Generator: Adobe Illustrator 26.0.1, SVG Export Plug-In . SVG Version: 6.00 Build 0)  -->
<svg version="1.1" id="Livello_1" xmlns="http://www.w3.org/2000/svg" x="0px" y="0px"
	 viewBox="0 0 1839 2500" style="enable-background:new 0 0 1839 2500;" xml:space="preserve">
<style type="text/css">
	.st0{fill:#F6D2A2;}
	.st1{fill:#179CDE;}
	.st2{fill:#FFFFFF;}
	.st3{fill:#231F20;}
</style>
<path class="st0" d="M26.5,1351.7c3.6,73.7,77.3,39.4,110.2,16.5c31.5-22.2,40.8-3.6,43.6-46.5c2.1-28.6,5-56.5,3.6-85.1
	c-47.9-4.3-99.5,7.2-138.8,35.8C24.3,1286.6-12.9,1333.8,26.5,1351.7 M1495.5,2257.6c56.5,35.1,160.3,141,75.1,192.5
	c-81.6,74.4-127.4-82.3-198.9-103.8C1402.5,2304.1,1441.1,2265.5,1495.5,2257.6z M483.7,2377.1c-66.5,10-103.8,70.1-159.6,100.9
	c-52.2,30.8-72.3-10-76.6-18.6c-7.9-3.6-7.2,3.6-20-9.3c-48.7-76.6,50.1-132.4,101.6-170.3C400.7,2265.5,445.8,2327.7,483.7,2377.1
	L483.7,2377.1z M1809.7,1342.4c-3.6,73.7-77.3,39.4-110.2,16.5c-31.5-22.2-40.8-3.6-43.6-46.5c-2.2-28.6-5-56.5-3.6-85.1
	c47.9-4.3,99.5,7.2,138.8,35.8C1811.1,1277.3,1849,1324.5,1809.7,1342.4"/>
<path class="st1" d="M1614.3,443.7c255.5-90.2,55.8-440.1-166.7-285.5C1301.6,32.9,1100.5,10,889.4,10
	c-206.8,16.5-403.6,54.4-541,174.6C126.6,41.5-78,385,182.5,471.6c-73,283.4,10,572.4-1.4,860.8c-10.7,259-78.7,606.1,65.1,838.6
	c122.4,198.9,385.7,269.8,602.5,277.6c276.9,10,612.5-58,747-326.3c128.8-255.5,93-573.9,76.6-849.4
	C1655.8,994.6,1686.6,712,1614.3,443.7L1614.3,443.7z"/>
<path d="M1829,1298.8c-7.2-15-20.7-32.2-33.6-41.5c-32.9-23.6-75.1-36.5-118.8-37.9c-1.4-44.4-2.9-93-2.9-154.6v-55.8
	c-0.7-176-2.9-253.3-12.9-349.9c-7.9-75.8-20-146-37.2-211.8c58-22.2,95.9-58.7,110.9-105.9c14.3-43.6,7.2-93-17.2-136.7
	c-25-42.9-65.1-75.1-111.6-88c-50.1-13.6-104.5-3.6-156.7,31.5c-46.5-39.4-100.2-69.4-160.3-92.3C1182.1,16.5,1058.3,1.4,890.2,1.4
	v7.2l-0.7-7.2C709.8,15.7,576.7,43.7,466.5,97.3c-44.4,21.5-83.7,47.2-118.1,77.3c-53-32.9-108.1-40.8-158.9-25
	c-47.2,14.3-88,47.9-112.3,91.6s-30.1,93.7-13.6,136.7c16.5,42.9,54.4,76.6,110.9,97.3C156.7,547.4,147.4,624,146,708.4
	c-1.4,82.3,2.1,148.1,15,297c9.3,110.9,12.9,161.7,14.3,223.3c-48.7-2.1-97.3,10.7-133.8,37.2c-12.9,9.3-27.2,25.8-33.6,41.5
	c-9.3,20-5.7,37.9,12.9,48.7c2.9,34.3,22.2,50.1,51.5,47.2c21.5-2.1,47.2-13.6,69.4-29.3c4.7-3.4,9.7-6.3,15-8.6
	c2.1-0.7,3.6-1.4,5.7-2.2c0,0,4.3-1.4,5.7-2.1c2.1-0.7,4.3-1.4,5.7-2.9c-1.4,33.6-4.3,68.7-10.7,148.8
	c-7.2,90.2-10.7,139.5-12.2,194.6c-6.4,204.6,17.9,353.5,90.9,471.6c22.9,37.2,50.8,70.1,83.7,100.2c-6.4,4.3-33.6,24.3-42.2,30.8
	c-30.1,22.9-50.8,42.2-63,63.7c-15.7,27.9-15.7,55.8,2.1,85.2l0.7,0.7l0.7,0.7c7.9,7.9,12.2,10,17.9,10h2.1c0.7,1.4,1.4,2.1,2.2,3.6
	c2.1,3.6,4.3,6.4,6.4,9.3c17.9,20.8,42.9,25.8,76.6,5.7c17.9-9.3,30.8-20,58-42.9l1.4-1.4c43.6-37.2,65.1-50.8,97.3-55.8l11.5-2.1
	c4.3,2.2,8.6,3.6,13.6,5.7c101.6,40.8,219.7,63,339.2,67.3c154.6,5.7,303.4-13.6,429.3-59.4c33.6-12.2,65.1-26.5,95.2-42.2
	c18.6,7.2,34.3,22.2,64.4,57.2c1.4,1.4,1.4,1.4,2.1,2.9c1.4,1.4,1.4,2.2,2.2,2.9c1.4,2.1,3.6,3.6,5,5.7
	c23.6,27.9,39.4,41.5,57.3,49.4c23.6,10,46.5,5,70.1-16.5c41.5-25.8,44.4-65.8,17.2-111.6c-19.3-32.2-52.9-65.8-84.4-87.3
	c37.2-36.5,69.4-80.1,94.4-129.5c68.7-137.4,95.2-297.7,93.7-503.8c-0.7-73-3.6-136.7-11.5-258.3v-3.6c3.6,1.4,7.2,3.6,10.7,6.4
	c22.2,15,47.9,27.2,69.4,29.3c29.3,2.9,48.7-12.9,51.5-47.2C1834.7,1336.7,1838.3,1318.8,1829,1298.8L1829,1298.8z M1601.4,131.7
	c42.9,11.5,80.1,41.5,103,81.6c22.9,40.1,29.3,85.2,16.5,125.2c-13.6,42.2-47.9,75.9-101.6,95.9c-10.7-38.3-23.4-76-37.9-113.1
	c20.8-17.9,30.8-40.1,14.3-71.5c-16.5-31.5-45.1-35.1-74.4-25.8c-18.6-24.3-39.4-45.8-60.8-65.8
	C1507.7,128.1,1556.4,119.5,1601.4,131.7L1601.4,131.7z M75.9,373.5c-15-38.6-10-84.4,12.9-124.5c22.9-40.1,60.1-71.6,104.5-84.4
	C239,151,288.4,157.4,337,186c-28.1,25.3-53.1,53.9-74.4,85.2c-37.2-19.3-75.1-22.9-96.6,16.5c-22.2,42.2,3.6,68.7,40.1,88.7
	c-5,12.2-10,25-14.3,37.9c-5,15.7-10,32.2-14.3,48.7C125.2,442.9,90.9,412.2,75.9,373.5L75.9,373.5z M162.4,1348.8
	c-0.7,0-5,1.4-5,2.1c-2.1,0.7-4.3,1.4-6.4,2.9c-5.7,2.1-11.5,5.7-17.2,10c-20,14.3-44.4,25-63,26.5c-21.5,2.1-33.6-7.2-35.8-32.9
	c15-5,21.5-8.6,27.2-17.2l-11.5-8.6c-4.3,5.7-8.6,7.9-21.5,12.2c-0.7,0-0.7,0-1.4,0.7c-11.4-6.4-13.6-16.5-7.1-30.8
	c5.7-12.9,18.6-27.9,29.3-35.8c34.3-25,80.1-37.2,125.9-34.4c0,17.9,0.7,35.8,0,52.9c0,2.2,0,3.6-0.7,5.7c-0.7,10-0.7,14.3-1.4,19.3
	C171.7,1342.4,170.3,1345.3,162.4,1348.8L162.4,1348.8z M378.5,2428.6l-1.4,1.4c-26.5,22.9-39.4,32.2-55.8,41.5
	c-27.2,16.5-45.8,12.9-58.7-2.9c-2.1-2.2-3.6-5-5-7.2c-0.7-0.7-1.4-2.1-2.1-2.9v-0.7c1.4-12.9,6.4-22.2,19.3-42.2
	c0.7-0.7,0.7-0.7,0.7-1.4c7.9-11.5,11.4-17.9,15-25.8l-12.9-5.7c-2.9,6.4-6.4,12.2-13.6,23.6c-0.7,0.7-0.7,0.7-0.7,1.4
	c-12.9,18.6-18.6,30-21.5,42.9h-0.7H239c-1.4-0.7-3.6-2.1-6.4-5c-27.9-44.4-5.7-82.3,57.2-129.5c7.9-5.7,34.4-24.3,41.5-30
	c1.4,0,2.9-0.7,4.3-1.4c38.6,32.9,83.7,61.5,133.8,85.2c0,0.7,0.7,1.4,1.4,2.2C441.5,2379.2,418.6,2394.3,378.5,2428.6L378.5,2428.6
	z M1580,2350.6c22.2,37.2,21.5,67.3-6.4,88c-2.1-4.3-3.6-9.3-6.4-16.5c0-0.7,0-0.7-0.7-1.4c-10-27.2-16.5-38.6-28.6-51.5l-10,10
	c10.7,10,15.7,20.8,25.8,45.8c0,0.7,0,0.7,0.7,1.4c3.6,9.3,5.7,15,7.9,20c-18.6,15.7-35.1,18.6-52.2,10.7c-15-6.4-29.3-20-52.2-45.8
	c-1.4-1.4-2.9-3.6-4.3-5.7c-0.7-0.7-1.4-1.4-2.2-2.9c-1.4-1.4-1.4-1.4-2.1-2.9c-26.5-30.8-42.2-47.2-59.4-56.5
	c40.1-22.9,75.9-48.7,108.1-78.7C1527.7,2286.9,1561.4,2319.9,1580,2350.6L1580,2350.6z M1590,2118.8
	c-61.5,123.8-170.3,211.1-316.3,264c-124.5,45.1-271.9,63.7-424.3,58c-262.6-9.3-490.2-100.9-596.8-274.1
	c-71.6-115.2-95.2-261.9-88.7-463.7c2.1-55.1,5-104.5,12.2-194.6c7.9-101.6,10-130.9,12.2-176.7c1.4-32.9,1.4-66.5,0.7-102.3
	c-1.4-63-5-113.1-14.3-225.4c-12.9-148.8-16.5-214-15-295.5c2.2-107.3,16.5-201.8,46.5-291.2c48.6-145.3,138.1-243.3,266.9-307
	c108-52.9,239-80.1,417.2-94.5c166.7,0,288.4,15,393.6,53.7c125.9,46.5,219.7,128.1,284.1,253.3c41.5,101.6,65.8,211.1,78.7,337
	c10,95.9,12.2,173.2,12.9,348.5v55.8c0.7,86.6,2.1,147.4,5.7,208.2c1.4,23.6,2.1,33.6,5.7,90.2c7.9,121.6,10.7,184.6,11.5,257.6
	C1683.7,1825.4,1658,1983.5,1590,2118.8L1590,2118.8z M1809,1335.2c-0.7,0-1.4-0.7-2.1-0.7c-12.9-4.3-17.2-7.2-21.5-12.2l-11.5,8.6
	c6.4,8.6,12.9,12.2,27.2,17.2c-2.9,25.8-15,35.1-35.8,32.9c-18.6-1.4-42.9-12.9-63-26.5c-5.7-4.3-11.4-7.2-17.2-10
	c-0.7,0-1.4-0.7-2.2-0.7c-2.9-39.4-2.9-49.4-4.3-70.1l-2.1-38.6c40.1,0.7,79.4,12.9,109.5,35.1c10.7,7.9,23.6,22.9,29.3,35.8
	C1822.5,1318.1,1821.1,1328.8,1809,1335.2L1809,1335.2z"/>
<path class="st2" d="M997.9,748c0.7,36.5,7.9,76.6,1.4,115.2c-10,18.6-28.6,20.8-45.1,27.9c-22.9-3.6-42.2-18.6-51.5-40.1
	c-5.7-43.6,1.4-85.2,3.6-128.8c0-1.4,27.2,0.7,51.5,7.9C978.6,736.5,997.9,747.3,997.9,748L997.9,748z M795.4,750.8
	c-20,75.9,26.5,199.6,103,98c-5.7-42.9,0.7-84.4,2.9-126.7C902,718.6,796.1,745.8,795.4,750.8L795.4,750.8z"/>
<path d="M1006.5,781.6c-1.4-21.5-2.1-30.1-2.1-40.8v-5l-5-1.4l-90.2-27.9v-5l-9.3,2.2h-0.7v0.7l-101.6,25.8l-3.6,0.7l-1.4,3.6
	c-15.7,37.9-12.2,95.2,7.9,130.2c22.9,40.1,60.1,40.8,98-5c10.7,20.7,30.6,35,53.7,38.6h2.2l2.1-0.7c2.9-1.4,5.7-2.2,10.7-4.3
	c0.7,0,0.7,0,1.4-0.7c20.7-7.2,29.3-12.9,36.5-26.5l0.7-0.7v-1.4c2.1-12.9,2.9-26.5,2.9-41.5
	C1008.7,811.7,1007.9,801.6,1006.5,781.6L1006.5,781.6z M892,755.1c-0.7,12.9-1.4,17.9-2.1,25c-1.4,26.5-1.4,46.5,0.7,66.5
	c-33.6,42.9-60.1,42.9-78,10.7c-17.2-30-20.8-80.9-7.9-114.5l90.2-22.9C894.2,729.4,893.5,738.7,892,755.1z M992.2,861
	c-5,8.6-11.5,12.9-28.6,18.6c-0.7,0-0.7,0-1.4,0.7c-4.3,1.4-7.2,2.9-9.3,3.6c-19.3-3.6-35.8-16.5-43.6-34.3
	c-2.1-19.3-2.1-39.4-0.7-65.8c0.7-7.2,0.7-12.2,2.2-25c1.4-16.5,2.1-26.5,2.1-35.8l78,23.6c0,9.3,0.7,17.9,2.1,36.5
	c1.4,19.3,2.1,29.3,2.1,40.8C995.1,837.4,994.3,849.6,992.2,861z"/>
<g transform="translate(48.476 21.976)">
	<path class="st2" d="M316.2,414.2c65.8,256.2,475.8,190.3,460.1-66.5C757.7,40,253.2,99.4,316.2,414.2"/>
	<path d="M783.5,347c-4.3-74.4-37.2-132.4-91.6-168.9c-48.7-32.9-113.1-45.8-176.7-37.9c-63.7,8.6-122.4,37.2-161,82.3
		c-42.9,50.1-59.4,115.9-44.4,191.8l6.4-1.4l-6.4,1.4C377,677.6,799.2,613.9,783.5,347z M322.7,412.8
		c-14.3-72.3,1.4-133.8,41.5-180.3c36.5-42.2,91.6-70.1,152.4-78c60.8-7.9,121.6,4.3,167.4,35.8c50.8,34.4,81.6,88,85.9,158.9
		C784.9,598.9,386.3,659,322.7,412.8L322.7,412.8z"/>
	<ellipse cx="429.3" cy="372" rx="69.4" ry="75.1"/>
	<ellipse class="st2" cx="460.8" cy="389.2" rx="16.5" ry="19.3"/>
</g>
<g transform="translate(129.618 18.098)">
	<path class="st2" d="M810.1,370.2c50.8,294.1,531.7,216.1,462.3-80.1C1210.1,23.9,792.9,97.6,810.1,370.2"/>
	<path d="M1278.8,288.7c-63.7-274.1-493-198.9-475.8,82.3v0.7c23.6,138.8,147.4,209.7,284.1,186.8c62.2-10.7,118.1-40.8,154.6-85.1
		C1281.6,423.9,1296,360.2,1278.8,288.7L1278.8,288.7z M1230.8,464.7c-34.4,41.5-86.6,70.1-146,80.1
		c-129.5,21.5-245.4-45.1-268.3-175.3c-15.7-264.8,389.3-335.6,449.4-78C1281.6,359.5,1268.8,418.9,1230.8,464.7z"/>
	<ellipse cx="928.2" cy="357.4" rx="68" ry="75.1"/>
	<ellipse class="st2" cx="959.6" cy="374.5" rx="15.7" ry="19.3"/>
</g>
<g>
	<path class="st0" d="M810.2,596.3c-56.5,5-102.3,71.6-73,124.5c38.6,70.1,125.2-6.4,178.9,0.7c62.3,1.4,113.1,65.8,162.4,11.5
		c55.1-60.1-23.6-118.8-85.9-144.5L810.2,596.3L810.2,596.3z"/>
	<path class="st3" d="M1085.7,644.2c-19.3-24.3-53-46.5-89.5-61.5l-1.4-0.7h-1.4l-183.2,7.2c-63.7,5.7-109.5,79.4-78.7,135.2
		c12.2,21.5,28.6,32.2,50.8,33.6c16.5,0.7,33.6-2.9,60.1-12.2c2.1-0.7,5-1.4,8.6-2.9c35.8-12.2,50.1-15.7,64.4-13.6h0.7
		c17.2,0,31.5,5,58.7,15.7c30.1,12.2,39.4,15.7,54.4,17.2c20.8,1.4,38.6-5.7,55.1-23.6C1112.2,707.9,1110.7,675,1085.7,644.2
		L1085.7,644.2z M1073.5,728.6c-13.6,15-27.2,20-43.6,19.3c-12.9-0.7-21.5-4.3-50.1-15.7c-28.6-12.2-44.4-16.5-63-17.2
		c-17.9-2.2-32.9,1.4-70.8,14.3c-3.6,1.4-6.4,2.1-8.6,2.9c-52.2,17.9-77.3,16.5-94.5-15c-25.8-46.5,13.6-109.5,67.3-114.5l181-7.2
		c34.4,14.3,65.1,35.1,83,57.3C1095.7,678.5,1096.4,704.3,1073.5,728.6L1073.5,728.6z"/>
	<path d="M1007,565.5c-22.2-81.6-208.2-69.4-203.9,27.9C812.3,665.7,1028.4,646.3,1007,565.5z"/>
</g>
<path class="st2" d="M1034,1491.2c25.2-25.2,50.2-84-54.8-12.6c-149.1,102.9-296.1,199.5-296.1,199.5c-30.6,13.8-65.5,14.6-96.6,2.1
	c-63-18.9-136.5-44.1-136.5-44.1s-50.2-31.5,35.7-65.1c0,0,363.3-149.1,489.3-201.6c48.3-21,212-88.2,212-88.2s75.6-29.4,69.3,42
	c-2.1,29.4-18.9,132.3-35.7,243.6c-25.2,157.5-52.5,329.7-52.5,329.7s-4.2,48.3-39.9,56.7c-38.2-0.6-75.1-13.9-105-37.8
	c-8.4-6.3-157.5-100.8-212.1-147c-18.2-12.3-23-37.1-10.6-55.3c3.3-4.9,7.7-9,12.7-12C889.1,1632,979.4,1545.9,1034,1491.2z"/>
</svg>
