<svg version="1.1" id="Livello_1" xmlns="http://www.w3.org/2000/svg" x="0px" y="0px"
	 viewBox="0 0 1366 981" style="enable-background:new 0 0 1366 981;" xml:space="preserve">
<style type="text/css">
	.st0{fill:#00A5D7;}
</style>
<g fill="#00A5D7">
	<g>
		<path d="M377.26,202.87H268.41c-4.67,0-8.45,3.78-8.45,8.45v75.83c0,4.67,3.78,8.45,8.45,8.45h77.75c6.82,0,10.88,7.69,6.96,13.26
			c-16.92,24.03-43.28,36.04-79.07,36.04c-29.35,0-53.61-9.88-72.78-29.64c-19.17-19.76-28.76-44.51-28.76-74.25
			c0-29.74,9.39-54.49,28.17-74.25c18.78-19.76,42.65-29.64,71.61-29.64c18.17,0,33.78,3.45,46.83,10.35
			c3.86,2.04,8.62,0.83,11.02-2.82l49.62-75.44c2.84-4.32,1.18-10.16-3.52-12.33c-30.76-14.2-65.41-21.31-103.95-21.31
			c-59.87,0-110.44,19.86-151.72,59.57c-41.28,39.72-61.92,88.33-61.92,145.86c0,57.52,20.64,106.14,61.92,145.86
			c41.28,39.72,92.05,59.57,152.31,59.57c61.04,0,111.03-19.08,149.96-57.23c1.62-1.59,3.21-3.2,4.76-4.82
			c2.92-3.06,3.15-7.77,0.55-11.11c-29.34-37.69-44.19-82.04-44.19-132.26c0-9.79,0.57-19.35,1.69-28.68
			C386.25,207.3,382.33,202.87,377.26,202.87z"/>
		<path d="M680.48,315.27c-18.59,19.76-41.96,29.64-70.14,29.64c-28.17,0-51.55-9.88-70.14-29.64c-1.43-1.52-2.79-3.08-4.1-4.66
			c-0.42-0.5-0.91-0.93-1.43-1.31c-0.8-0.58-1.55-1.22-2.24-1.95c-1.32-1.38-9.73-10.77-14.7-29.95
			c-3.6-11.16-5.41-23.28-5.41-36.37c0-29.35,9.29-54,27.88-73.96c18.59-19.96,41.97-29.93,70.14-29.93
			c28.17,0,51.55,9.98,70.14,29.93c4.37,4.69,8.21,9.64,11.54,14.85c1.57,2.45,4.24,3.95,7.15,3.95h104.71c5.8,0,9.84-5.7,8-11.2
			c-9.89-29.59-26.88-56.1-50.98-79.51C720,55.45,669.81,35.59,610.34,35.59c-54.38,0-100.99,16.61-139.83,49.82
			c-3.64,3.11-7.21,6.36-10.72,9.76c-40.89,39.72-61.34,88.33-61.34,145.86c0,57.52,20.45,106.14,61.34,145.86
			c40.89,39.72,91.07,59.57,150.55,59.57c4.89,0,9.72-0.15,14.49-0.42c53.18-3,98.54-22.71,136.06-59.16
			c19.35-18.79,34.11-39.58,44.3-62.36c2.5-5.59-1.6-11.91-7.73-11.91H686.63C684.3,312.6,682.07,313.57,680.48,315.27
			L680.48,315.27z"/>
		<path d="M270.73,612.76c-10.39-9.39-22.94-14.42-37.64-15.07c-0.43-0.02-0.77-0.37-0.77-0.8l0,0c0-0.43,0.33-0.77,0.76-0.8
			c11.18-0.69,21.57-5.71,31.16-15.06c9.81-9.56,14.72-23,14.72-40.33c0-20.64-7.2-37.21-21.6-49.69
			c-14.4-12.49-33.58-18.73-57.53-18.73H69.13c-4.67,0-8.45,3.78-8.45,8.45v239.21c0,4.67,3.78,8.45,8.45,8.45h130.69
			c26.76,0,47.91-6.56,63.46-19.69c15.55-13.12,23.32-30.64,23.32-52.56C286.6,636.78,281.31,622.32,270.73,612.76z M134.07,537.69
			c0-4.67,3.78-8.45,8.45-8.45h38.18c7.65,0,13.95,2.17,18.92,6.5c4.97,4.33,7.45,9.94,7.45,16.82c0,7.14-2.55,12.93-7.65,17.39
			c-5.1,4.46-11.72,6.69-19.88,6.69h-37.04c-4.67,0-8.45-3.78-8.45-8.45V537.69z M203.84,664.37c-4.97,4.71-11.79,7.07-20.45,7.07
			h-40.86c-4.67,0-8.45-3.78-8.45-8.45v-32.41c0-4.67,3.78-8.45,8.45-8.45h41.62c8.16,0,14.72,2.17,19.69,6.5
			c4.97,4.33,7.45,10.07,7.45,17.2C211.29,653.47,208.81,659.65,203.84,664.37z"/>
		<path d="M401.53,545.11c-27.11,0-49.99,9.05-68.63,27.16c-18.64,18.11-27.96,40.27-27.96,66.49c0,26.22,9.32,48.39,27.96,66.49
			c18.64,18.11,41.52,27.16,68.63,27.16c27.11,0,49.99-9.05,68.63-27.16c18.64-18.11,27.96-40.27,27.96-66.49
			c0-26.22-9.32-48.39-27.96-66.49C451.53,554.16,428.65,545.11,401.53,545.11z M433.51,672.61c-8.47,9.01-19.13,13.51-31.98,13.51
			c-12.84,0-23.5-4.5-31.98-13.51c-8.47-9.01-12.71-20.29-12.71-33.85c0-13.38,4.24-24.62,12.71-33.71
			c8.47-9.1,19.13-13.65,31.98-13.65c12.84,0,23.5,4.55,31.98,13.65c8.47,9.1,12.71,20.34,12.71,33.71
			C446.22,652.32,441.98,663.6,433.51,672.61z"/>
		<path d="M513.81,593.27h39.29c4.67,0,8.45,3.78,8.45,8.45v118.22c0,4.67,3.78,8.45,8.45,8.45h34.74c4.67,0,8.45-3.78,8.45-8.45
			V601.72c0-4.67,3.78-8.45,8.45-8.45h39.29c4.67,0,8.45-3.78,8.45-8.45v-27.24c0-4.67-3.78-8.45-8.45-8.45H513.81
			c-4.67,0-8.45,3.78-8.45,8.45v27.24C505.36,589.49,509.14,593.27,513.81,593.27z"/>
		<path d="M775.81,477.58l-96.4,239.21c-2.24,5.56,1.85,11.61,7.84,11.61h60.35c3.53,0,6.69-2.19,7.92-5.5l10.43-27.99
			c1.23-3.31,4.39-5.5,7.92-5.5H863c3.56,0,6.73,2.23,7.95,5.57l10.1,27.85c1.21,3.34,4.39,5.57,7.95,5.57h60.68
			c5.99,0,10.08-6.06,7.84-11.61l-96.4-239.21c-1.29-3.2-4.39-5.29-7.84-5.29h-69.63C780.2,472.28,777.1,474.38,775.81,477.58z
			 M794.75,616.49l16.11-43.77c2.72-7.39,13.19-7.37,15.88,0.03l15.9,43.77c2,5.51-2.08,11.34-7.95,11.34h-32.01
			C796.8,627.86,792.72,622.01,794.75,616.49z"/>
		<path d="M1112.8,472.28H988.61c-4.67,0-8.45,3.78-8.45,8.45v239.21c0,4.67,3.78,8.45,8.45,8.45h56.49c4.67,0,8.45-3.78,8.45-8.45
			v-56.11c0-4.67,3.78-8.45,8.45-8.45h45.45c30.07,0,54.09-8.47,72.06-25.42c17.97-16.95,26.95-39.44,26.95-67.47
			c0-27.01-8.54-48.8-25.61-65.37C1163.77,480.56,1141.09,472.28,1112.8,472.28z M1124.08,588.11c-6.75,6.12-15.23,9.17-25.42,9.17
			h-36.65c-4.67,0-8.45-3.78-8.45-8.45v-47.31c0-4.67,3.78-8.45,8.45-8.45h36.65c10.19,0,18.67,2.93,25.42,8.79
			c6.75,5.86,10.13,13.38,10.13,22.55C1134.21,574.09,1130.83,581.99,1124.08,588.11z"/>
		<path d="M1242.43,728.4h56.49c4.67,0,8.45-3.78,8.45-8.45V480.74c0-4.67-3.78-8.45-8.45-8.45h-56.49c-4.67,0-8.45,3.78-8.45,8.45
			v239.21C1233.97,724.61,1237.76,728.4,1242.43,728.4z"/>
		<path d="M548.97,295.6h351.51c4.67,0,8.45-3.78,8.45-8.45v-75.83c0-4.67-3.78-8.45-8.45-8.45H542.87c-3.23,0-6.2,1.83-7.6,4.74
			c-2.66,5.52-5.07,17.74-5.22,39.16c-0.18,24.94,7.74,38.54,11.8,44.94C543.4,294.14,546.09,295.6,548.97,295.6z"/>
	</g>
	<path d="M957.24,108.85l20.02,91.02c2.59,11.78,12.35,20.63,24.33,22.06l139.98,16.67c14.48,1.72,14.48,22.73,0,24.45
		l-140.49,16.73c-11.97,1.43-21.74,10.27-24.33,22.05l-19.5,88.53c-5.13,23.28,19.02,42.11,40.35,31.46l294.03-146.85
		c20.91-10.44,20.91-40.28,0-50.72L997.59,77.4C976.26,66.75,952.12,85.57,957.24,108.85z"/>
</g>
<g fill="#6b8a8c">
	<path d="M205.22,844.17c0.54,7.38,0.81,11.89,0.81,13.53c0,21.05-6.68,38.24-20.04,51.57c-13.36,13.33-30.52,19.99-51.47,19.99
		c-20.68,0-38.1-6.94-52.27-20.81C68.08,894.58,61,877.59,61,857.5s7.08-37.08,21.25-50.95c14.17-13.88,31.52-20.81,52.07-20.81
		c15.98,0,30.01,3.62,42.1,10.87s20.34,17.36,24.78,30.35L161.92,837c-5.37-10.53-14.57-15.79-27.6-15.79
		c-9.94,0-18.13,3.45-24.57,10.35s-9.67,15.55-9.67,25.94c0,10.39,3.29,19.04,9.87,25.94c6.58,6.9,14.91,10.35,24.98,10.35
		c14.37,0,24.31-5.74,29.81-17.22h-34.65v-32.4H205.22z"/>
	<path d="M328.9,926.19H221.53V788.81h106.56v33.22h-67.88v20.3h62.44v30.14h-62.44v20.5h68.69V926.19z"/>
	<path d="M478.55,926.19h-32.03l-62.04-70.74v70.74h-38.67V788.81h31.82l62.04,73.2v-73.2h38.88V926.19z"/>
	<path d="M604.64,926.19H497.28V788.81h106.56v33.22h-67.88v20.3h62.44v30.14h-62.44v20.5h68.69V926.19z"/>
	<path d="M702.53,926.19l-37.06-43.88h-5.24v43.88h-38.67V788.81h71.91c14.5,0,26.22,4.24,35.15,12.71
		c8.93,8.48,13.4,19.62,13.4,33.42c0,10.94-2.89,20.33-8.66,28.19c-5.77,7.86-13.7,13.36-23.77,16.51l39.48,46.55H702.53z
		 M686.21,851.14c5.37,0,9.67-1.4,12.89-4.2c3.22-2.8,4.83-6.46,4.83-10.97c0-4.38-1.61-7.89-4.83-10.56c-3.22-2.67-7.52-4-12.89-4
		h-25.98v29.73H686.21z"/>
	<path d="M860.04,926.19l-7.45-20.92h-53.18l-7.65,20.92h-41.49l54.39-137.38h42.7l54.39,137.38H860.04z M826.2,831.05l-14.9,41.21
		h29.61L826.2,831.05z"/>
	<path d="M970.82,822.64v103.55h-38.88V822.64h-42.3v-33.83h123.48v33.83H970.82z"/>
	<path d="M1142.94,806.55c14.03,13.88,21.05,30.86,21.05,50.95c0,20.09-7.02,37.08-21.05,50.96
		c-14.03,13.88-31.26,20.81-51.67,20.81c-20.41,0-37.63-6.94-51.67-20.81c-14.03-13.88-21.05-30.86-21.05-50.96
		s7.02-37.08,21.05-50.95c14.03-13.88,31.25-20.81,51.67-20.81C1111.69,785.73,1128.91,792.67,1142.94,806.55z M1115.35,883.44
		c6.38-6.9,9.57-15.55,9.57-25.94c0-10.25-3.19-18.86-9.57-25.84c-6.38-6.97-14.4-10.46-24.07-10.46c-9.67,0-17.69,3.49-24.07,10.46
		c-6.38,6.97-9.57,15.58-9.57,25.84c0,10.39,3.19,19.04,9.57,25.94c6.38,6.9,14.4,10.35,24.07,10.35
		C1100.94,893.79,1108.97,890.34,1115.35,883.44z"/>
	<path d="M1260.47,926.19l-37.06-43.88h-5.24v43.88h-38.67V788.81h71.91c14.5,0,26.22,4.24,35.15,12.71
		c8.93,8.48,13.4,19.62,13.4,33.42c0,10.94-2.89,20.33-8.66,28.19c-5.77,7.86-13.7,13.36-23.77,16.51l39.48,46.55H1260.47z
		 M1244.15,851.14c5.37,0,9.67-1.4,12.89-4.2c3.22-2.8,4.83-6.46,4.83-10.97c0-4.38-1.61-7.89-4.83-10.56c-3.22-2.67-7.52-4-12.89-4
		h-25.98v29.73H1244.15z"/>
</g>
</svg>
